<svg xmlns="http://www.w3.org/2000/svg">
    <symbol id="wallet" viewBox="0 0 469.341 469.341">
        <g>
            <path d="M448.004,236.639v-65.965c0-22.368-17.35-40.559-39.271-42.323l-61.26-107c-5.677-9.896-14.844-16.969-25.813-19.906
				c-10.917-2.917-22.333-1.385-32.104,4.302L79.553,128.007H42.67c-23.531,0-42.667,19.135-42.667,42.667v256
				c0,23.531,19.135,42.667,42.667,42.667h362.667c23.531,0,42.667-19.135,42.667-42.667v-65.965
				c12.389-4.418,21.333-16.147,21.333-30.035v-64C469.337,252.786,460.393,241.057,448.004,236.639z M383.944,128.007h-92.971
				l69.729-40.596L383.944,128.007z M350.103,68.898l-101.529,59.109h-42.113l133.112-77.5L350.103,68.898z M300.295,24.184
				c4.823-2.823,10.458-3.573,15.844-2.135c5.448,1.458,9.99,4.979,12.813,9.906l0.022,0.039l-164.91,96.013h-42.111L300.295,24.184
				z M426.67,426.674c0,11.76-9.573,21.333-21.333,21.333H42.67c-11.76,0-21.333-9.573-21.333-21.333v-256
				c0-11.76,9.573-21.333,21.333-21.333h362.667c11.76,0,21.333,9.573,21.333,21.333v64h-64c-35.292,0-64,28.708-64,64
				c0,35.292,28.708,64,64,64h64V426.674z M448.004,330.674c0,5.885-4.781,10.667-10.667,10.667H362.67
				c-23.531,0-42.667-19.135-42.667-42.667c0-23.531,19.135-42.667,42.667-42.667h74.667c5.885,0,10.667,4.781,10.667,10.667
				V330.674z" />
            <path d="M362.67,277.341c-11.76,0-21.333,9.573-21.333,21.333c0,11.76,9.573,21.333,21.333,21.333
				c11.76,0,21.333-9.573,21.333-21.333C384.004,286.914,374.431,277.341,362.67,277.341z" />
        </g>
    </symbol>

    <symbol id="save-money" viewBox="-29 0 487 487.71902">
        <path d="m220.867188 266.175781c-.902344-.195312-1.828126-.230469-2.742188-.09375-9.160156-1.066406-16.070312-8.816406-16.085938-18.035156 0-4.417969-3.582031-8-8-8-4.417968 0-8 3.582031-8 8 .023438 15.394531 10.320313 28.878906 25.164063 32.953125v8c0 4.417969 3.582031 8 8 8s8-3.582031 8-8v-7.515625c17.132813-3.585937 28.777344-19.542969 26.976563-36.953125-1.804688-17.410156-16.472657-30.640625-33.976563-30.644531-10.03125 0-18.164063-8.132813-18.164063-18.164063s8.132813-18.164062 18.164063-18.164062 18.164063 8.132812 18.164063 18.164062c0 4.417969 3.582031 8 8 8 4.417968 0 8-3.582031 8-8-.023438-16.164062-11.347657-30.105468-27.164063-33.441406v-7.28125c0-4.417969-3.582031-8-8-8s-8 3.582031-8 8v7.769531c-16.507813 4.507813-27.132813 20.535157-24.859375 37.496094s16.746094 29.621094 33.859375 29.617187c9.898437 0 17.972656 7.925782 18.152344 17.820313.183593 9.894531-7.597657 18.113281-17.488281 18.472656zm0 0" />
        <path d="m104.195312 222.5c0 64.070312 51.9375 116.007812 116.007813 116.007812s116.007813-51.9375 116.007813-116.007812-51.9375-116.007812-116.007813-116.007812c-64.039063.070312-115.933594 51.96875-116.007813 116.007812zm116.007813-100.007812c55.234375 0 100.007813 44.773437 100.007813 100.007812s-44.773438 100.007812-100.007813 100.007812-100.007813-44.773437-100.007813-100.007812c.0625-55.207031 44.800782-99.945312 100.007813-100.007812zm0 0" />
        <path d="m375.648438 358.230469-62.667969 29.609375c-8.652344-16.09375-25.25-26.335938-43.515625-26.851563l-57.851563-1.589843c-9.160156-.261719-18.148437-2.582032-26.292969-6.789063l-5.886718-3.050781c-30.140625-15.710938-66.066406-15.671875-96.175782.101562l.367188-13.335937c.121094-4.417969-3.359375-8.097657-7.777344-8.21875l-63.4375-1.746094c-4.417968-.121094-8.09375 3.359375-8.214844 7.777344l-3.832031 139.210937c-.121093 4.417969 3.359375 8.097656 7.777344 8.21875l63.4375 1.746094h.21875c4.335937 0 7.882813-3.449219 8-7.78125l.183594-6.660156 16.480469-8.824219c6.46875-3.480469 14.03125-4.308594 21.097656-2.308594l98.414062 27.621094c.171875.050781.34375.089844.519532.128906 7.113281 1.488281 14.363281 2.234375 21.628906 2.230469 15.390625.007812 30.601562-3.308594 44.589844-9.730469.34375-.15625.675781-.339843.992187-.546875l142.691406-92.296875c3.554688-2.300781 4.703125-6.96875 2.621094-10.65625-10.59375-18.796875-34.089844-25.957031-53.367187-16.257812zm-359.070313 107.5625 3.390625-123.21875 47.441406 1.304687-3.390625 123.222656zm258.925781-2.09375c-17.378906 7.84375-36.789062 10.007812-55.46875 6.191406l-98.148437-27.550781c-11.046875-3.121094-22.871094-1.828125-32.976563 3.605468l-8.421875 4.511719 2.253907-81.925781c26.6875-17.75 60.914062-19.574219 89.335937-4.765625l5.886719 3.050781c10.289062 5.3125 21.636718 8.242188 33.210937 8.578125l57.855469 1.589844c16.25.46875 30.050781 12.039063 33.347656 27.960937l-86.175781-2.378906c-4.417969-.121094-8.09375 3.363282-8.21875 7.777344-.121094 4.417969 3.363281 8.097656 7.777344 8.21875l95.101562 2.617188h.222657c4.332031-.003907 7.875-3.453126 7.992187-7.78125.097656-3.476563-.160156-6.957032-.773437-10.378907l64.277343-30.371093c.0625-.027344.125-.058594.1875-.089844 9.117188-4.613282 20.140625-3.070313 27.640625 3.871094zm0 0" />
        <path d="m228.203125 84v-76c0-4.417969-3.582031-8-8-8s-8 3.582031-8 8v76c0 4.417969 3.582031 8 8 8s8-3.582031 8-8zm0 0" />
        <path d="m288.203125 84v-36c0-4.417969-3.582031-8-8-8s-8 3.582031-8 8v36c0 4.417969 3.582031 8 8 8s8-3.582031 8-8zm0 0" />
        <path d="m168.203125 84v-36c0-4.417969-3.582031-8-8-8s-8 3.582031-8 8v36c0 4.417969 3.582031 8 8 8s8-3.582031 8-8zm0 0" />
    </symbol>

    <symbol id="man" viewBox="0 0 511.999 511.999">
        <g>
            <g>
                <path d="M241.227,378.889c-3.851-2.826-9.27-2.001-12.1,1.852l-1.069,1.455c-2.827,3.85-2.004,9.261,1.842,12.094
			c1.545,1.139,3.345,1.689,5.128,1.689c2.653,0,5.272-1.216,6.968-3.514l1.085-1.475
			C245.91,387.137,245.08,381.719,241.227,378.889z" />
            </g>
        </g>
        <g>
            <g>
                <path d="M243.486,461.241l-22.263-40.482l20.786-28.31c2.831-3.853,2-9.271-1.854-12.101c-3.853-2.831-9.271-2-12.1,1.855
			l-24.058,32.765c-1.995,2.716-2.231,6.342-0.608,9.295l24.928,45.321v-0.001c1.577,2.865,4.538,4.486,7.593,4.486
			c1.411-0.001,2.841-0.346,4.164-1.073C244.262,470.693,245.79,465.43,243.486,461.241z" />
            </g>
        </g>
        <g>
            <g>
                <path d="M308.004,414.969l-23.96-32.632c-1.987-2.705-5.354-4.02-8.648-3.368c-3.293,0.647-5.914,3.141-6.728,6.396
			c-0.625,2.5-0.104,5.146,1.421,7.223l20.684,28.172l-22.111,40.207c-0.702,1.277-1.071,2.717-1.071,4.176
			c0,3.951,2.676,7.401,6.503,8.384c0.717,0.185,1.44,0.274,2.154,0.274c3.099,0,6.036-1.672,7.585-4.485l24.778-45.05
			C310.236,421.311,309.998,417.685,308.004,414.969z" />
            </g>
        </g>
        <g>
            <g>
                <path d="M321.721,278.932c-2.847-1.495-6.289-1.291-8.938,0.535c-5.149,3.547-9.927,7.305-14.201,11.168
			c-23.296,21.06-45.429,18.21-46.296,18.086c-0.522-0.082-1.053-0.12-1.578-0.103c-9.207,0.236-25.807-8.177-43.368-21.969
			c-2.686-2.109-5.44-4.119-8.19-5.975c-2.652-1.792-6.079-1.973-8.905-0.47c-2.827,1.502-4.594,4.442-4.594,7.644v29.696
			c0,2.626,1.195,5.108,3.243,6.752c0.242,0.195,0.494,0.375,0.754,0.541l61.381,41.016c0.01,0.006,0.019,0.014,0.029,0.021
			l0.162,0.108c1.445,0.956,3.11,1.439,4.781,1.439c1.406,0,2.812-0.341,4.097-1.028c0.271-0.145,0.531-0.304,0.781-0.474
			c0.029-0.019,0.058-0.038,0.088-0.058c0.034-0.022,0.068-0.045,0.102-0.068l61.236-40.919c0.246-0.156,0.486-0.324,0.717-0.504
			c2.101-1.64,3.329-4.157,3.329-6.823v-30.951C326.351,283.378,324.569,280.429,321.721,278.932z M309.037,312.914L256,348.354
			l-53.036-35.441v-7.873c12.914,9.385,31.911,20.896,47.396,20.895c0.032,0,0.068,0,0.101,0c5.199,0.575,31.712,2.138,58.578-21.43
			V312.914z" />
            </g>
        </g>
        <g>
            <g>
                <path d="M264.539,357.343c-0.571-3.433-3.144-6.19-6.53-6.998c-3.388-0.803-6.926,0.492-8.986,3.298l-19.897,27.101
			c-2.83,3.854-2,9.272,1.855,12.101c1.543,1.134,3.337,1.68,5.116,1.68c2.662,0,5.288-1.225,6.986-3.536l19.793-26.958
			c1.126-1.472,1.782-3.304,1.782-5.262C264.657,358.293,264.617,357.813,264.539,357.343z" />
            </g>
        </g>
        <g>
            <g>
                <path d="M387.881,78.272c-0.172-1.356-4.227-30.622-31.775-42.167c0.8-5.14,0.716-11.746-2.547-18.173
			c-4.386-8.638-13.041-14.267-25.726-16.733c-0.544-0.106-1.096-0.159-1.651-0.159H209.995c-47.178,0-85.561,38.382-85.561,85.562
			v45.591c0,11.878,4.049,23.461,11.399,32.613c3.644,4.538,8.132,12.463,8.809,24.445c0.264,4.678,4.18,8.293,8.887,8.163
			c4.684-0.132,8.412-3.968,8.412-8.653v-59.44c5.878-24.309,25.939-29.04,29.388-29.679h37.582c4.421,0,8.768-0.675,12.923-2.007
			c7.146-2.292,18.483-6.51,26.737-9.645c5.522-2.099,11.636-2.176,17.213-0.216l40.234,14.124
			c20.114,7.42,23.704,25.078,24.149,27.852v71.337c0,4.531,3.493,8.29,8.011,8.627c0.22,0.016,0.436,0.025,0.652,0.025
			c4.246-0.001,7.912-3.112,8.555-7.375c0.034-0.223,3.49-22.55,14.636-40.426c3.878-6.223,5.929-13.318,5.929-20.518V79.365
			C387.95,79,387.927,78.635,387.881,78.272z M370.636,141.416c0,3.867-1.091,7.703-3.157,11.114v-23.372
			c0-0.313-0.017-0.624-0.051-0.935c-0.136-1.257-3.713-30.923-35.498-42.599c-0.039-0.014-0.078-0.028-0.117-0.042l-40.295-14.146
			c-4.543-1.595-9.296-2.391-14.046-2.391c-5.108,0-10.213,0.921-15.05,2.761c-11.556,4.39-20.505,7.621-25.876,9.343
			c-2.443,0.783-5.012,1.181-7.636,1.181h-38.281c-0.371,0-0.743,0.024-1.112,0.071c-1.465,0.19-35.992,5.1-44.681,44.045
			c-0.138,0.619-0.208,1.251-0.208,1.885v17.816c-1.885-4.356-2.883-9.114-2.883-13.953v-45.59
			c0-37.632,30.617-68.249,68.248-68.249h115.315c4.774,1.017,10.576,3.104,12.777,7.35c2.695,5.197-0.375,12.353-0.378,12.359
			c-1.107,2.355-1.094,5.082,0.031,7.427c1.126,2.345,3.248,4.059,5.778,4.668c22.038,5.305,26.533,26.442,27.119,29.861V141.416z" />
            </g>
        </g>
        <g>
            <g>
                <path d="M367.429,128.223c-0.136-1.257-3.713-30.923-35.498-42.599c-0.039-0.014-0.078-0.028-0.117-0.042l-40.295-14.146
			c-9.43-3.31-19.762-3.178-29.097,0.368c-11.556,4.39-20.505,7.621-25.876,9.344c-2.443,0.783-5.012,1.18-7.636,1.18h-38.281
			c-0.371,0-0.743,0.024-1.112,0.071c-1.465,0.19-35.992,5.1-44.681,44.045c-0.138,0.619-0.208,1.251-0.208,1.885v74.416
			c0,0.064,0.001,0.128,0.002,0.192c0.057,2.585,1.886,63.632,44.066,91.551l0.218,0.154c0.181,0.128,0.362,0.256,0.551,0.383
			c2.405,1.624,4.82,3.387,7.182,5.241c12.288,9.649,35.445,25.67,53.713,25.67c0.034,0,0.066,0,0.101,0
			c0.992,0.109,2.763,0.255,5.165,0.255c10.353,0,32.441-2.713,54.565-22.713c3.713-3.355,7.888-6.637,12.414-9.755l0.647-0.453
			c0.211-0.149,0.422-0.299,0.64-0.445c14.07-9.45,38.438-33.834,43.554-90.968c0.023-0.256,0.035-0.515,0.035-0.773v-71.926
			C367.48,128.846,367.462,128.535,367.429,128.223z M350.166,200.693c-4.717,51.562-26.686,71.551-35.928,77.758
			c-0.328,0.221-0.652,0.449-0.976,0.677l-0.48,0.338c-5.149,3.547-9.927,7.305-14.201,11.168
			c-23.209,20.982-45.27,18.23-46.352,18.078c-0.503-0.075-1.013-0.107-1.522-0.093c-9.207,0.236-25.807-8.177-43.368-21.969
			c-2.686-2.11-5.44-4.12-8.186-5.973l-0.213-0.15c-0.208-0.148-0.415-0.295-0.659-0.457c-34.038-22.529-36.265-75.25-36.34-77.45
			v-73.3c5.899-24.398,26.084-29.075,29.374-29.679h37.596c4.421,0,8.768-0.675,12.923-2.007c7.146-2.292,18.484-6.51,26.737-9.645
			c5.522-2.099,11.636-2.176,17.213-0.216l40.234,14.124c20.114,7.42,23.704,25.078,24.149,27.852V200.693z" />
            </g>
        </g>
        <g>
            <g>
                <path d="M263.742,354.898c-1.349-2.698-4.005-4.499-7.01-4.755c-3-0.248-5.926,1.071-7.711,3.503l-20.736,28.242
			c-2.827,3.852-2.001,9.266,1.848,12.097c1.544,1.136,3.341,1.685,5.122,1.685c2.656,0,5.278-1.219,6.975-3.522l20.737-28.138
			c1.097-1.488,1.689-3.39,1.689-5.238C264.657,357.429,264.342,356.101,263.742,354.898z" />
            </g>
        </g>
        <g>
            <g>
                <path d="M264.297,494.276c-3.252-3.401-8.625-3.582-12.097-0.405l-1.979,1.81c-2.963,2.709-3.674,7.101-1.716,10.607l0.061,0.109
			c1.322,2.369,3.68,3.981,6.367,4.354c0.398,0.055,0.796,0.082,1.192,0.082c2.279,0,4.486-0.901,6.121-2.536l1.917-1.919
			C267.49,503.051,267.55,497.675,264.297,494.276z" />
            </g>
        </g>
        <g>
            <g>
                <path d="M261.779,495.681l-1.979-1.81c-3.472-3.176-8.846-2.995-12.098,0.405c-3.253,3.402-3.193,8.779,0.135,12.105l1.92,1.919
			c1.635,1.635,3.841,2.535,6.12,2.535c0.407,0,0.816-0.028,1.225-0.087c2.696-0.385,5.054-2.018,6.365-4.406l0.061-0.109
			C265.446,502.733,264.724,498.374,261.779,495.681z" />
            </g>
        </g>
        <g>
            <g>
                <path d="M261.925,495.816l-0.011-0.01c-1.337-1.25-3.066-2.074-4.971-2.283c-2.551-0.278-5.036,0.586-6.843,2.269l-0.026,0.024
			c-1.75,1.596-2.769,3.841-2.82,6.209c-0.051,2.37,0.871,4.655,2.55,6.325l0.091,0.091c1.689,1.679,3.896,2.518,6.104,2.518
			c2.216,0,4.431-0.846,6.12-2.534l0.091-0.091c1.672-1.673,2.588-3.956,2.533-6.32C264.691,499.649,263.672,497.41,261.925,495.816
			z" />
            </g>
        </g>
        <g>
            <g>
                <path d="M258.808,350.389c-3.585-1.148-7.519,0.183-9.702,3.253c-2.442,3.438-2.039,8.123,0.936,11.112
			c1.674,1.682,3.896,2.544,6.135,2.544c1.739,0,3.487-0.52,4.995-1.582c2.304-1.621,3.675-4.261,3.675-7.079v-0.021
			C264.847,354.849,262.397,351.534,258.808,350.389z" />
            </g>
        </g>
        <g>
            <g>
                <path d="M263.034,353.571l-0.074-0.1c-2.221-3.006-6.121-4.244-9.67-3.075c-3.549,1.169-5.947,4.485-5.947,8.221v0.148
			c0,3.187,1.789,6.092,4.597,7.6c1.272,0.683,2.676,1.02,4.078,1.02c1.691,0,3.38-0.49,4.832-1.452
			c1.979-1.31,3.334-3.376,3.747-5.713C265.01,357.884,264.445,355.479,263.034,353.571z" />
            </g>
        </g>
        <g>
            <g>
                <path d="M358.979,326.377c-0.897-2.371-2.788-4.229-5.174-5.083l-33.191-11.898c-0.269-0.096-0.548-0.182-0.826-0.25
			c-2.369-0.593-4.879-0.158-6.909,1.2l-61.498,41.094c-0.016,0.011-0.034,0.022-0.051,0.034l4.829,7.18l-4.937-7.107
			c-1.804,1.193-3.096,3.022-3.62,5.12c-0.288,1.152-0.335,2.355-0.14,3.526c0.223,1.338,0.757,2.606,1.561,3.701l45.025,61.321
			c1.636,2.23,4.232,3.534,6.976,3.534c0.188,0,0.377-0.007,0.566-0.02c2.949-0.194,5.596-1.876,7.02-4.467l49.857-90.648
			C359.69,331.392,359.877,328.746,358.979,326.377z M299.976,404.036l-31.645-43.1l50.542-33.773l19.533,7.003L299.976,404.036z" />
            </g>
        </g>
        <g>
            <g>
                <path d="M264.529,357.274c-0.407-2.324-1.744-4.381-3.704-5.696l-61.703-41.231c-1.964-1.314-4.385-1.764-6.692-1.252
			c-0.354,0.078-0.702,0.18-1.043,0.302l-33.191,11.898c-2.386,0.855-4.277,2.713-5.174,5.083c-0.897,2.371-0.711,5.015,0.511,7.237
			l49.857,90.648c1.424,2.59,4.071,4.273,7.02,4.467c0.188,0.012,0.377,0.018,0.565,0.018c2.744,0,5.339-1.304,6.978-3.535
			l24.058-32.765c0.019-0.025,0.038-0.052,0.057-0.079l20.911-28.481C264.375,361.986,264.935,359.598,264.529,357.274z
			 M228.057,382.198c-0.021,0.028-0.041,0.056-0.062,0.084l-15.973,21.755l-38.43-69.871l19.534-7.002l50.541,33.773
			L228.057,382.198z" />
            </g>
        </g>
        <g>
            <g>
                <path d="M511.571,474.155l-11.167-67.433c-3.519-21.251-18.288-39.006-38.544-46.332l-108.034-39.086
			c-3.331-1.204-7.054-0.26-9.408,2.382c-2.354,2.643-2.863,6.453-1.283,9.622l22.556,45.234l-22.133,0.341
			c-3.005,0.047-5.772,1.647-7.307,4.231c-1.536,2.584-1.622,5.778-0.228,8.441l9.078,17.333l-92.903,84.987
			c-0.095,0.087-0.188,0.175-0.279,0.266l-1.918,1.918c-2.717,2.718-3.318,6.902-1.473,10.274l0.068,0.123
			c1.519,2.775,4.431,4.502,7.595,4.502h224.171c9.313,0,18.107-4.073,24.128-11.175
			C510.512,492.681,513.093,483.339,511.571,474.155z M491.288,488.586c-2.728,3.216-6.71,5.06-10.925,5.06H278.097l83.611-76.484
			c2.9-2.651,3.65-6.922,1.826-10.403l-5.648-10.783l21.826-0.336c2.975-0.045,5.716-1.616,7.263-4.157
			c1.545-2.543,1.678-5.699,0.351-8.362l-19.037-38.176l87.686,31.723c14.375,5.2,24.856,17.8,27.353,32.881l11.167,67.433
			c0,0.001,0,0.001,0,0.001C495.183,481.142,494.015,485.37,491.288,488.586z" />
            </g>
        </g>
        <g>
            <g>
                <path d="M262,495.885l-0.101-0.091c-3.426-3.102-8.688-2.964-11.948,0.314l-0.09,0.091c-2.465,2.48-3.196,6.2-1.854,9.428
			c1.343,3.229,4.497,5.332,7.993,5.332h0.19c3.579,0,6.79-2.204,8.076-5.543C265.555,502.075,264.654,498.287,262,495.885z" />
            </g>
        </g>
        <g>
            <g>
                <path d="M261.728,495.635c-1.965-1.769-4.63-2.544-7.24-2.099c-2.607,0.441-4.869,2.052-6.141,4.37l-0.06,0.109
			c-1.825,3.327-1.27,7.455,1.369,10.183l0.031,0.032c1.696,1.753,3.956,2.637,6.222,2.637c2.085,0,4.176-0.75,5.832-2.263
			l0.091-0.082c0.786-0.716,1.434-1.574,1.91-2.526C265.485,502.513,264.623,498.239,261.728,495.635z" />
            </g>
        </g>
        <g>
            <g>
                <path d="M262.102,496.164l-0.036-0.037c-0.023-0.023-0.047-0.047-0.069-0.069l-1.92-1.918c-0.09-0.091-0.183-0.18-0.277-0.265
			l-92.903-84.987l9.079-17.333c1.395-2.662,1.308-5.857-0.227-8.441c-1.536-2.583-4.302-4.184-7.307-4.231l-22.135-0.341
			l22.556-45.234c1.58-3.168,1.07-6.979-1.283-9.622s-6.081-3.588-9.408-2.382L50.139,360.39
			c-20.256,7.325-35.026,25.08-38.545,46.332L0.427,474.155c-1.521,9.188,1.061,18.528,7.083,25.629
			c6.023,7.101,14.818,11.174,24.128,11.174H256c3.506,0,6.665-2.115,8.001-5.355C265.338,502.363,264.588,498.635,262.102,496.164z
			 M31.639,493.646c-4.216,0-8.198-1.844-10.924-5.06c-2.726-3.215-3.894-7.444-3.206-11.604l11.167-67.433
			c2.497-15.083,12.978-27.681,27.353-32.881l87.685-31.723l-19.036,38.174c-1.328,2.663-1.196,5.819,0.351,8.362
			c1.545,2.542,4.288,4.112,7.263,4.157l21.826,0.337l-5.648,10.783c-1.823,3.48-1.073,7.752,1.825,10.403l83.611,76.485H31.639z" />
            </g>
        </g>
        <g>
            <g>
                <path d="M285.464,389.557c0.625-2.5,0.104-5.147-1.421-7.224l-21.066-28.689c-2.214-3.016-6.118-4.215-9.672-3.049
			c-1.919,0.629-3.5,1.899-4.552,3.522l-20.681,28.061c-0.296,0.4-0.559,0.83-0.782,1.276c-1.417,2.835-1.172,6.217,0.638,8.818
			l8.807,12.647l-9.382,59.137c-0.301,1.899,0.039,3.843,0.965,5.528l20.098,36.541c1.521,2.767,4.429,4.485,7.585,4.485
			c3.157,0,6.064-1.718,7.585-4.485l20.248-36.812c0.702-1.278,1.071-2.713,1.071-4.171v-0.005c0-0.454-0.037-0.908-0.107-1.357
			l-9.339-58.86l8.712-12.508C284.769,391.546,285.21,390.577,285.464,389.557z M256.001,483.992l-11.085-20.153l9.464-59.649
			c0.351-2.21-0.168-4.468-1.446-6.303l-7.254-10.418l10.346-14.038l10.4,14.164l-7.167,10.292
			c-1.278,1.834-1.796,4.093-1.446,6.303l9.421,59.377L256.001,483.992z" />
            </g>
        </g>
        <g>
        </g>
        <g>
        </g>
        <g>
        </g>
        <g>
        </g>
        <g>
        </g>
        <g>
        </g>
        <g>
        </g>
        <g>
        </g>
        <g>
        </g>
        <g>
        </g>
        <g>
        </g>
        <g>
        </g>
        <g>
        </g>
        <g>
        </g>
        <g>
        </g>
    </symbol>

    <symbol id="car" viewBox="0 0 512 512">
        <g>
            <g>
                <path d="M504.485,136.266c-13.536,0-24.548-11.011-24.548-24.548c0-4.151-3.364-7.515-7.515-7.515
			c-4.151,0-7.515,3.364-7.515,7.515c0,13.536-11.011,24.548-24.548,24.548c-4.151,0-7.515,3.364-7.515,7.515
			s3.364,7.515,7.515,7.515c13.536,0,24.548,11.012,24.548,24.548c0,4.151,3.364,7.515,7.515,7.515c4.151,0,7.515-3.364,7.515-7.515
			c0-13.536,11.011-24.548,24.548-24.548c4.151,0,7.515-3.364,7.515-7.515S508.636,136.266,504.485,136.266z M472.423,152.665
			c-2.472-3.409-5.476-6.412-8.884-8.884c3.409-2.472,6.413-5.476,8.884-8.884c2.472,3.409,5.476,6.412,8.884,8.884
			C477.898,146.253,474.895,149.257,472.423,152.665z" />
            </g>
        </g>
        <g>
            <g>
                <path d="M71.64,136.266c-13.535,0-24.548-11.011-24.548-24.548c0-4.151-3.365-7.515-7.515-7.515c-4.15,0-7.515,3.364-7.515,7.515
			c0,13.536-11.013,24.548-24.548,24.548c-4.15,0-7.515,3.364-7.515,7.515s3.365,7.515,7.515,7.515
			c13.535,0,24.548,11.012,24.548,24.548c0,4.151,3.365,7.515,7.515,7.515c4.15,0,7.515-3.364,7.515-7.515
			c0-13.536,11.013-24.548,24.548-24.548c4.15,0,7.515-3.364,7.515-7.515S75.79,136.266,71.64,136.266z M39.577,152.665
			c-2.472-3.409-5.475-6.412-8.884-8.884c3.41-2.472,6.413-5.476,8.884-8.884c2.472,3.409,5.475,6.412,8.884,8.884
			C45.053,146.253,42.049,149.257,39.577,152.665z" />
            </g>
        </g>
        <g>
            <g>
                <path d="M296.078,40.078c-17.956,0-32.564-14.607-32.564-32.564C263.515,3.364,260.151,0,256,0c-4.15,0-7.515,3.364-7.515,7.515
			c0,17.956-14.609,32.564-32.564,32.564c-4.15,0-7.515,3.364-7.515,7.515s3.365,7.515,7.515,7.515
			c17.955,0,32.564,14.608,32.564,32.564c0,4.151,3.365,7.515,7.515,7.515c4.151,0,7.515-3.364,7.515-7.515
			c0-17.956,14.608-32.564,32.564-32.564c4.151,0,7.515-3.364,7.515-7.515S300.229,40.078,296.078,40.078z M256,62.027
			c-3.715-5.784-8.65-10.719-14.435-14.434c5.785-3.715,10.72-8.65,14.435-14.434c3.715,5.784,8.65,10.719,14.434,14.434
			C264.65,51.308,259.715,56.243,256,62.027z" />
            </g>
        </g>
        <g>
            <g>
                <path d="M412.456,253.499l-29.232-82.824c-2.187-6.198-8.073-10.362-14.645-10.362H141.417c-6.573,0-12.458,4.164-14.645,10.361
			l-29.232,82.825c-1.698,4.811,1.992,10.016,7.086,10.016h300.744c2.438,0,4.725-1.184,6.133-3.174
			C412.912,258.35,413.268,255.799,412.456,253.499z M115.247,248.485l25.697-72.809c0.068-0.193,0.267-0.334,0.472-0.334h227.163
			c0.205,0,0.404,0.141,0.473,0.335l25.697,72.808H115.247z" />
            </g>
        </g>
        <g>
            <g>
                <path d="M399.28,352.689c-26.688,0-47.593,13.864-47.593,31.562s20.905,31.562,47.593,31.562s47.593-13.864,47.593-31.562
			S425.968,352.689,399.28,352.689z M399.28,400.783c-18.638,0-32.564-8.728-32.564-16.532s13.925-16.532,32.564-16.532
			c18.638,0,32.564,8.728,32.564,16.532S417.918,400.783,399.28,400.783z" />
            </g>
        </g>
        <g>
            <g>
                <path d="M110.716,352.689c-26.688,0-47.593,13.864-47.593,31.562s20.905,31.562,47.593,31.562s47.593-13.864,47.593-31.562
			S137.404,352.689,110.716,352.689z M110.716,400.783c-18.637,0-32.564-8.728-32.564-16.532s13.926-16.532,32.564-16.532
			s32.564,8.728,32.564,16.532S129.354,400.783,110.716,400.783z" />
            </g>
        </g>
        <g>
            <g>
                <path d="M495.468,240.47h-40.078c-3.448,0-6.454,2.347-7.29,5.692l-5.279,21.115L405.9,162.671
			c-5.574-15.793-20.572-26.405-37.321-26.405H141.417c-16.749,0-31.747,10.612-37.321,26.406l-36.92,104.606l-5.279-21.116
			c-0.837-3.346-3.843-5.692-7.29-5.692H14.528c-4.15,0-7.515,3.364-7.515,7.515v32.063c0,4.151,3.365,7.515,7.515,7.515h41.507
			l-25.619,35.866c-4.822,6.751-7.371,14.707-7.371,23.004v93.928c0,13.015,6.317,24.581,16.044,31.798
			c-0.003,0.088-0.013,0.175-0.013,0.264v24.047c0,8.564,6.967,15.53,15.53,15.53h48.094c8.564,0,15.53-6.967,15.53-15.53v-16.532
			h273.534v16.532c0,8.564,6.967,15.53,15.53,15.53h48.094c8.564,0,15.53-6.967,15.53-15.53v-24.047c0-0.089-0.01-0.176-0.013-0.264
			c9.727-7.217,16.044-18.783,16.044-31.798v-93.928c0-8.298-2.55-16.254-7.372-23.004l-25.619-35.866h41.508
			c4.151,0,7.515-3.364,7.515-7.515v-32.063C502.982,243.833,499.619,240.47,495.468,240.47z M22.043,272.532v-17.033h26.696
			l4.258,17.033H22.043z M103.202,496.47c0,0.276-0.224,0.501-0.501,0.501H54.607c-0.276,0-0.501-0.225-0.501-0.501v-16.532h8.517
			h40.579V496.47z M455.89,496.47c0,0.276-0.225,0.501-0.501,0.501h-48.094c-0.276,0-0.501-0.225-0.501-0.501v-16.532h40.579h8.517
			V496.47z M447.374,464.908H62.622c-10.915,0-20.185-7.162-23.367-17.033H470.74C467.558,457.746,458.289,464.908,447.374,464.908z
			 M319.624,383.75v17.033H190.372V383.75H319.624z M191.553,368.72c3.182-9.871,12.451-17.033,23.367-17.033h80.157
			c10.915,0,20.185,7.162,23.367,17.033H191.553z M319.624,415.812v17.033H190.372v-17.033H319.624z M467.35,332.164
			c2.991,4.187,4.572,9.121,4.572,14.268v86.414H334.654v-56.611c0-21.823-17.755-39.577-39.577-39.577H214.92
			c-21.823,0-39.577,17.755-39.577,39.577v56.611H38.074v-86.414c0-5.147,1.581-10.081,4.572-14.268l31.859-44.602h276.68
			c4.151,0,7.515-3.364,7.515-7.515c0-4.151-3.364-7.515-7.515-7.515H81.259l37.009-104.859c3.458-9.795,12.76-16.378,23.149-16.378
			H368.58c10.388,0,19.69,6.582,23.149,16.378l37.008,104.859h-45.489c-4.151,0-7.515,3.364-7.515,7.515
			c0,4.151,3.364,7.515,7.515,7.515h52.243L467.35,332.164z M487.953,272.532h-30.955l4.258-17.033h26.697V272.532z" />
            </g>
        </g>
        <g>
            <g>
                <path d="M134.763,328.642H86.669c-4.15,0-7.515,3.364-7.515,7.515s3.365,7.515,7.515,7.515h48.094c4.15,0,7.515-3.364,7.515-7.515
			S138.913,328.642,134.763,328.642z" />
            </g>
        </g>
        <g>
            <g>
                <path d="M423.327,328.642h-48.094c-4.151,0-7.515,3.364-7.515,7.515s3.364,7.515,7.515,7.515h48.094
			c4.151,0,7.515-3.364,7.515-7.515S427.478,328.642,423.327,328.642z" />
            </g>
        </g>
    </symbol>

    <symbol id="driver-license" viewBox="0 0 64 64">
        <g id="Driver_License-Id-License-Transport-Identification" data-name="Driver License-Id-License-Transport-Identification">
            <path d="m15 29h2v2h-2z" />
            <path d="m21 29h2v2h-2z" />
            <path d="m58 7h-52a5 5 0 0 0 -5 5v38a5 5 0 0 0 5 5h52a5 5 0 0 0 5-5v-38a5 5 0 0 0 -5-5zm3 43a3.009 3.009 0 0 1 -3 3h-52a3.009 3.009 0 0 1 -3-3v-35h58zm0-37h-58v-1a3.009 3.009 0 0 1 3-3h52a3.009 3.009 0 0 1 3 3z" />
            <path d="m27.85 41.51-4.85-2.16v-1.43a8.06 8.06 0 0 0 3.74-4.92h.26a3 3 0 0 0 0-6v-2a8 8 0 0 0 -16 0v2a3 3 0 0 0 0 6h.26a8.06 8.06 0 0 0 3.74 4.92v1.43l-4.85 2.16a7 7 0 0 0 -4.15 6.39v2.1a1 1 0 0 0 1 1h24a1 1 0 0 0 1-1v-2.1a7 7 0 0 0 -4.15-6.39zm-.85-12.51a1 1 0 0 1 0 2zm-16 2a1 1 0 0 1 0-2zm12.53 10.77-.24.94-1.58-.53-.37-.73.68-.34zm-10.53-16.77a6 6 0 0 1 12 0v.97a2.009 2.009 0 0 1 -1.6-1.48l-.43-1.73a1 1 0 0 0 -1.97.24 3.009 3.009 0 0 1 -3 3h-5zm0 6v-3h5a5.012 5.012 0 0 0 3.93-1.91 3.99 3.99 0 0 0 3.07 1.89v3.02a6 6 0 0 1 -12 0zm2.98 10.11.68.34-.37.73-1.58.53-.24-.94zm-.73 7.89h-7.25v-1.1a5 5 0 0 1 2.97-4.57l1.65-.73.41 1.64a1.017 1.017 0 0 0 .49.64 1 1 0 0 0 .48.12 1.185 1.185 0 0 0 .32-.05l2.36-.79zm2.09 0 .96-3.29a.99.99 0 0 0 1.4 0l.96 3.29zm.88-6.2.4-.8h.76l.4.8-.78.79zm2.78-3.42-1.24.62h-1.52l-1.24-.62v-.64a7.822 7.822 0 0 0 4 0zm9 9.62h-7.25l-1.43-4.84 2.36.79a1.185 1.185 0 0 0 .32.05 1 1 0 0 0 .48-.12 1.017 1.017 0 0 0 .49-.64l.41-1.64 1.65.73a5 5 0 0 1 2.97 4.57z" />
            <path d="m34 18h4v2h-4z" />
            <path d="m42 18h2v2h-2z" />
            <path d="m46 18h2v2h-2z" />
            <path d="m50 18h2v2h-2z" />
            <path d="m54 18h2v2h-2z" />
            <path d="m34 31h6v2h-6z" />
            <path d="m42 27h4v2h-4z" />
            <path d="m48 27h8v2h-8z" />
            <path d="m42 31h14v2h-14z" />
            <path d="m42 37h2v2h-2z" />
            <path d="m46 37h2v2h-2z" />
            <path d="m50 37h2v2h-2z" />
            <path d="m54 37h2v2h-2z" />
            <path d="m42 48h4v2h-4z" />
            <path d="m48 48h4v2h-4z" />
            <path d="m54 48h2v2h-2z" />
        </g>
    </symbol>

    <symbol id="search" viewBox="0 0 64 64">
        <g>
            <path d="m61 27c1.103 0 2-.897 2-2v-10c0-1.103-.897-2-2-2h-23.347c-2.858-7.203-9.854-12-17.653-12-10.477 0-19 8.523-19 19 0 8.843 6.082 16.273 14.276 18.381-.177.517-.276 1.061-.276 1.619v20c0 1.654 1.346 3 3 3h4c1.654 0 3-1.346 3-3v-20c0-.555-.097-1.096-.273-1.611 2.246-.577 4.37-1.559 6.273-2.913v7.524c0 1.103.897 2 2 2h28c1.103 0 2-.897 2-2v-10c0-1.103-.897-2-2-2h-25.519c.884-1.24 1.602-2.581 2.164-4zm-36 0h5.948c-2.369 3.688-6.505 6-10.948 6-7.168 0-13-5.832-13-13s5.832-13 13-13c4.443 0 8.579 2.312 10.948 6h-5.948c-1.103 0-2 .897-2 2v10c0 1.103.897 2 2 2zm0-2v-10h12v10zm36.001 0h-22.001v-10h22zm-39.001 36h-4c-.551 0-1-.449-1-1v-15h6v15c0 .551-.449 1-1 1zm1-21v3h-6v-3c0-.426.095-.838.265-1.22.896.13 1.804.22 2.735.22.923 0 1.834-.086 2.736-.217.17.381.264.792.264 1.217zm10-7h14v10h-14zm28 10h-12v-10h12zm-28.063-11.994c-1.052.034-1.897.879-1.93 1.932-3.072 2.615-6.959 4.062-11.007 4.062-9.374 0-17-7.626-17-17s7.626-17 17-17c6.711 0 12.765 3.965 15.493 10h-2.234c-2.583-4.877-7.713-8-13.259-8-8.271 0-15 6.729-15 15s6.729 15 15 15c5.546 0 10.676-3.123 13.259-8h2.228c-.653 1.447-1.511 2.786-2.55 4.006z" />
            <path d="m57 19h2v2h-2z" />
            <path d="m53 19h2v2h-2z" />
            <path d="m49 19h2v2h-2z" />
            <path d="m45 19h2v2h-2z" />
            <path d="m41 19h2v2h-2z" />
            <path d="m34.293 16.293-5.293 5.293-1.293-1.293-1.414 1.414 2.707 2.707 6.707-6.707z" />
            <path d="m57 49h-28c-1.103 0-2 .897-2 2v10c0 1.103.897 2 2 2h28c1.103 0 2-.897 2-2v-10c0-1.103-.897-2-2-2zm-28 2h12v10h-12zm14 10v-10h14l.001 10z" />
            <path d="m53 55h2v2h-2z" />
            <path d="m49 55h2v2h-2z" />
            <path d="m45 55h2v2h-2z" />
            <path d="m35 37h2v2h-2z" />
            <path d="m39 37h2v2h-2z" />
            <path d="m43 37h2v2h-2z" />
            <path d="m38.293 52.293-5.293 5.293-1.293-1.293-1.414 1.414 2.707 2.707 6.707-6.707z" />
            <path d="m51.293 40.293 1.414 1.414 2.293-2.293 2.293 2.293 1.414-1.414-2.293-2.293 2.293-2.293-1.414-1.414-2.293 2.293-2.293-2.293-1.414 1.414 2.293 2.293z" />
        </g>
    </symbol>

    <symbol id="dialog" viewBox="0 0 512 512">
        <g>
            <g>
                <path d="m393.926 237.559c0-93.502-98.562-154.79-196.963-154.79-98.794 0-196.963 61.576-196.963 154.79 0 35.265 15.445 69.75 43.491 97.104 1.073 1.047 1.484 2.636 1.072 4.146-8.809 32.271-29.673 61.423-38.234 72.459-2.663 3.433-3.101 7.973-1.142 11.85 1.915 3.791 5.701 6.113 9.931 6.113.096 0 .191-.001.287-.003 41.893-1.045 90.452-12.869 120.468-42.379 1.049-1.032 2.554-1.44 4.028-1.089 18.442 4.374 37.641 6.591 57.062 6.591 98.765-.002 196.963-61.553 196.963-154.792zm-250.564 133.604c-6.521-1.549-13.254.317-18.005 4.988-30.017 29.513-79.032 36.222-102.235 37.713 10.599-14.631 27.832-41.502 35.912-71.106 1.847-6.766-.096-13.982-5.07-18.834-25.49-24.861-38.964-54.726-38.964-86.365 0-77.08 81.628-139.79 181.963-139.79s181.963 62.709 181.963 139.79-81.628 139.79-181.963 139.79c-18.257 0-36.29-2.082-53.601-6.186z" />
                <path d="m442.165 362.18c43.729-22.099 69.835-59.764 69.835-100.754 0-57.931-52.367-107.431-124.518-117.702-4.095-.582-7.898 2.267-8.481 6.368-.584 4.101 2.267 7.898 6.368 8.482 64.684 9.208 111.631 52.463 111.631 102.852 0 35.212-23.028 67.873-61.601 87.367-7.5 3.791-11.519 12.171-9.772 20.381 3.657 17.185 11.442 33.098 17.669 43.884-44.291-7.372-61.078-28.624-66.386-37.822-3.277-5.678-9.405-9.198-16.018-9.198-.02 0-.039 0-.058 0l-.55.001c-8.317 0-16.645-.577-24.75-1.716-4.091-.575-7.894 2.282-8.47 6.384s2.282 7.894 6.384 8.47c8.794 1.235 17.823 1.861 26.836 1.861l.61-.001h.011c1.255 0 2.407.649 3.012 1.696 20.313 35.203 67.008 44.191 86.141 46.421 4.226.492 8.252-1.439 10.507-5.05 2.249-3.603 2.221-8.063-.075-11.64-5.763-8.976-16.048-26.94-20.191-46.412-.331-1.556.436-3.149 1.866-3.872z" />
                <path d="m80.258 210.733c-14.333 0-25.993 11.661-25.993 25.993s11.66 25.993 25.993 25.993 25.993-11.661 25.993-25.993-11.66-25.993-25.993-25.993zm0 36.987c-6.062 0-10.993-4.932-10.993-10.993s4.932-10.993 10.993-10.993 10.993 4.932 10.993 10.993-4.932 10.993-10.993 10.993z" />
                <path d="m154.411 210.733c-14.333 0-25.993 11.661-25.993 25.993s11.66 25.993 25.993 25.993 25.993-11.661 25.993-25.993-11.66-25.993-25.993-25.993zm0 36.987c-6.062 0-10.993-4.932-10.993-10.993s4.932-10.993 10.993-10.993 10.993 4.932 10.993 10.993-4.931 10.993-10.993 10.993z" />
                <path d="m228.563 210.733c-14.333 0-25.993 11.661-25.993 25.993s11.66 25.993 25.993 25.993 25.993-11.661 25.993-25.993-11.66-25.993-25.993-25.993zm0 36.987c-6.062 0-10.993-4.932-10.993-10.993s4.932-10.993 10.993-10.993 10.993 4.932 10.993 10.993-4.931 10.993-10.993 10.993z" />
                <path d="m302.717 210.733c-14.333 0-25.993 11.661-25.993 25.993s11.66 25.993 25.993 25.993 25.993-11.661 25.993-25.993-11.66-25.993-25.993-25.993zm0 36.987c-6.062 0-10.993-4.932-10.993-10.993s4.932-10.993 10.993-10.993 10.993 4.932 10.993 10.993-4.932 10.993-10.993 10.993z" />
            </g>
        </g>
    </symbol>

    <symbol id="check" viewBox="0 0 64 64">
        <path d="m43.303 25.925-.701-1.873c-.627.235-1.263.45-1.891.64l.578 1.914c.669-.202 1.347-.431 2.014-.681z" />
        <path d="m37 30.28v-2.688c.742-.119 1.487-.265 2.226-.435l-.451-1.949c-.964.224-1.941.4-2.904.527l-.871.115v4.431c0 .268.006.535.02.801l1.998-.102c-.012-.233-.018-.465-.018-.7z" />
        <path d="m19 13c-3.309 0-6 2.691-6 6s2.691 6 6 6 6-2.691 6-6-2.691-6-6-6zm0 10c-2.206 0-4-1.794-4-4s1.794-4 4-4 4 1.794 4 4-1.794 4-4 4z" />
        <path d="m45.478 18.788-.477-.259-.477.259c-3.828 2.074-8.161 3.185-12.53 3.211l-.994.006v8.275c0 8.677 5.489 16.495 13.659 19.453l.341.123.341-.123c8.17-2.958 13.659-10.776 13.659-19.453v-8.275l-.994-.006c-4.366-.026-8.698-1.137-12.528-3.211zm11.522 11.492c0 7.717-4.807 14.682-12 17.445-7.193-2.764-12-9.729-12-17.445v-6.305c4.178-.171 8.297-1.261 12.001-3.177 3.705 1.916 7.823 3.006 11.999 3.177z" />
        <path d="m41 31.586-4.414 4.414 6.414 6.414 12.414-12.414-4.414-4.414-8 8zm11.586-1.586-9.586 9.586-3.586-3.586 1.586-1.586 2 2 8-8z" />
        <path d="m63 18h-4.829c-4.494 0-8.845-1.317-12.622-3.836l-.587-.341-.551.367c-2.277 1.519-4.784 2.595-7.411 3.209v-2.191l-2.635-.62c-.332-1.159-.795-2.275-1.381-3.332l1.426-2.303-5.363-5.363-2.303 1.426c-1.057-.586-2.173-1.049-3.332-1.381l-.62-2.635h-7.584l-.62 2.635c-1.159.332-2.275.795-3.332 1.381l-2.303-1.426-5.363 5.363 1.426 2.303c-.586 1.057-1.049 2.173-1.381 3.332l-2.635.62v7.584l2.635.62c.332 1.159.795 2.275 1.381 3.332l-1.426 2.303 5.363 5.363 2.303-1.426c1.057.586 2.173 1.049 3.332 1.381l.62 2.635h7.584l.62-2.635c1.159-.332 2.275-.795 3.332-1.381l.461.285c.536 4.323 2.198 8.378 4.745 11.78l-3.364 12.335 4.938-1.235 3.737 6.229 3.353-10.059c1.304.659 2.671 1.217 4.104 1.639l.282.084.282-.083c1.433-.422 2.8-.98 4.104-1.639l3.353 10.059 3.737-6.229 4.938 1.235-3.364-12.335c3.127-4.178 4.95-9.332 4.95-14.77zm-36.234 12.646-.523.318c-1.215.736-2.527 1.281-3.903 1.617l-.596.146-.536 2.273h-4.416l-.535-2.273-.596-.146c-1.376-.336-2.688-.881-3.903-1.617l-.523-.318-1.986 1.229-3.123-3.123 1.229-1.986-.318-.523c-.736-1.215-1.281-2.527-1.617-3.903l-.146-.596-2.274-.536v-4.416l2.273-.535.146-.596c.336-1.376.881-2.688 1.617-3.903l.318-.523-1.229-1.987 3.123-3.123 1.986 1.229.523-.318c1.215-.736 2.527-1.281 3.903-1.617l.596-.146.536-2.273h4.416l.535 2.273.596.146c1.376.336 2.688.881 3.903 1.617l.523.318 1.986-1.229 3.123 3.123-1.229 1.986.318.523c.736 1.215 1.281 2.527 1.617 3.903l.146.596 2.274.536v.982c-1.045.146-2.103.226-3.171.226h-.88c-.511-6.15-5.669-11-11.949-11-6.617 0-12 5.383-12 12s5.383 12 12 12c2.98 0 5.82-1.119 8-3.068v2.349c0 .176.018.349.022.524zm.234-12.646v6.979c-1.887 2.518-4.849 4.021-8 4.021-5.514 0-10-4.486-10-10s4.486-10 10-10c5.176 0 9.446 3.954 9.949 9zm9.739 39.621-2.263-3.771-3.062.765 2.099-7.698c1.552 1.701 3.34 3.189 5.324 4.409zm21.847-3.006-3.062-.765-2.263 3.771-2.098-6.295c1.984-1.22 3.772-2.708 5.324-4.409zm2.414-24.335c0 9.894-6.564 18.765-16 21.676-9.436-2.911-16-11.782-16-21.676v-10.28h2.829c4.673 0 9.203-1.309 13.17-3.808 3.948 2.494 8.489 3.808 13.172 3.808h2.829z" />
    </symbol>
    <symbol id="telegram" viewBox="0 0 24 24">
        <path d="m9.417 15.181-.397 5.584c.568 0 .814-.244 1.109-.537l2.663-2.545 5.518 4.041c1.012.564 1.725.267 1.998-.931l3.622-16.972.001-.001c.321-1.496-.541-2.081-1.527-1.714l-21.29 8.151c-1.453.564-1.431 1.374-.247 1.741l5.443 1.693 12.643-7.911c.595-.394 1.136-.176.691.218z" />
    </symbol>
    <symbol id="twitter" viewBox="0 0 512 512">
        <g>
            <path d="M512,97.248c-19.04,8.352-39.328,13.888-60.48,16.576c21.76-12.992,38.368-33.408,46.176-58.016
			c-20.288,12.096-42.688,20.64-66.56,25.408C411.872,60.704,384.416,48,354.464,48c-58.112,0-104.896,47.168-104.896,104.992
			c0,8.32,0.704,16.32,2.432,23.936c-87.264-4.256-164.48-46.08-216.352-109.792c-9.056,15.712-14.368,33.696-14.368,53.056
			c0,36.352,18.72,68.576,46.624,87.232c-16.864-0.32-33.408-5.216-47.424-12.928c0,0.32,0,0.736,0,1.152
			c0,51.008,36.384,93.376,84.096,103.136c-8.544,2.336-17.856,3.456-27.52,3.456c-6.72,0-13.504-0.384-19.872-1.792
			c13.6,41.568,52.192,72.128,98.08,73.12c-35.712,27.936-81.056,44.768-130.144,44.768c-8.608,0-16.864-0.384-25.12-1.44
			C46.496,446.88,101.6,464,161.024,464c193.152,0,298.752-160,298.752-298.688c0-4.64-0.16-9.12-0.384-13.568
			C480.224,136.96,497.728,118.496,512,97.248z" />
        </g>
    </symbol>
    <symbol id="vk" viewBox="0 0 24 24">
        <path d="m19.915 13.028c-.388-.49-.277-.708 0-1.146.005-.005 3.208-4.431 3.538-5.932l.002-.001c.164-.547 0-.949-.793-.949h-2.624c-.668 0-.976.345-1.141.731 0 0-1.336 3.198-3.226 5.271-.61.599-.892.791-1.225.791-.164 0-.419-.192-.419-.739v-5.105c0-.656-.187-.949-.74-.949h-4.126c-.419 0-.668.306-.668.591 0 .622.945.765 1.043 2.515v3.797c0 .832-.151.985-.486.985-.892 0-3.057-3.211-4.34-6.886-.259-.713-.512-1.001-1.185-1.001h-2.625c-.749 0-.9.345-.9.731 0 .682.892 4.073 4.148 8.553 2.17 3.058 5.226 4.715 8.006 4.715 1.671 0 1.875-.368 1.875-1.001 0-2.922-.151-3.198.686-3.198.388 0 1.056.192 2.616 1.667 1.783 1.749 2.076 2.532 3.074 2.532h2.624c.748 0 1.127-.368.909-1.094-.499-1.527-3.871-4.668-4.023-4.878z" />
    </symbol>
    <symbol id="">

    </symbol>
    <symbol id="">

    </symbol>
    <symbol id="">

    </symbol>
    <symbol id="">

    </symbol>
    <symbol id="">

    </symbol>
    <symbol id="">

    </symbol>
    <symbol id="">

    </symbol>
    <symbol id="">

    </symbol>
    <symbol id="">

    </symbol>
    <symbol id="">

    </symbol>
    <symbol id="">

    </symbol>
    <symbol id="">

    </symbol>

</svg>