<svg width="183" height="45" viewBox="0 0 183 45" fill="none" xmlns="http://www.w3.org/2000/svg">
<path d="M86.3027 27.7832V25.8008H98.0215V27.7832H93.3047V40H91.0391V27.7832H86.3027ZM96.6836 34.8047C96.6836 34.069 96.8105 33.3724 97.0645 32.7148C97.3249 32.0508 97.6927 31.4714 98.168 30.9766C98.6432 30.4753 99.2129 30.0814 99.877 29.7949C100.548 29.502 101.296 29.3555 102.123 29.3555C102.937 29.3555 103.673 29.5052 104.33 29.8047C104.988 30.0977 105.551 30.4883 106.02 30.9766C106.488 31.4583 106.843 32.0247 107.084 32.6758C107.331 33.3203 107.455 33.9941 107.455 34.6973C107.455 34.86 107.449 35.013 107.436 35.1562C107.423 35.293 107.41 35.4069 107.396 35.498H99.0176C99.0566 35.9668 99.1673 36.39 99.3496 36.7676C99.5319 37.1387 99.7663 37.4609 100.053 37.7344C100.339 38.0078 100.665 38.2194 101.029 38.3691C101.394 38.5124 101.778 38.584 102.182 38.584C102.475 38.584 102.764 38.5482 103.051 38.4766C103.337 38.3984 103.601 38.291 103.842 38.1543C104.083 38.0111 104.294 37.8418 104.477 37.6465C104.665 37.4447 104.812 37.2233 104.916 36.9824L106.801 37.5195C106.443 38.3073 105.847 38.9518 105.014 39.4531C104.18 39.9479 103.21 40.1953 102.104 40.1953C101.29 40.1953 100.548 40.0521 99.877 39.7656C99.2129 39.4792 98.6432 39.0918 98.168 38.6035C97.6927 38.1087 97.3249 37.5358 97.0645 36.8848C96.8105 36.2272 96.6836 35.5339 96.6836 34.8047ZM98.959 33.9844H105.277C105.238 33.5417 105.128 33.1348 104.945 32.7637C104.77 32.3861 104.542 32.0671 104.262 31.8066C103.982 31.5462 103.653 31.3444 103.275 31.2012C102.904 31.0514 102.514 30.9766 102.104 30.9766C101.693 30.9766 101.303 31.0514 100.932 31.2012C100.561 31.3444 100.235 31.5462 99.9551 31.8066C99.6751 32.0671 99.4473 32.3861 99.2715 32.7637C99.1022 33.1348 98.998 33.5417 98.959 33.9844ZM109.271 37.7832V25.4004H111.469V36.9824C111.469 37.3665 111.57 37.6693 111.771 37.8906C111.973 38.112 112.253 38.2227 112.611 38.2227C112.761 38.2227 112.93 38.1966 113.119 38.1445C113.314 38.0859 113.5 38.0241 113.676 37.959L113.998 39.6777C113.679 39.8275 113.298 39.9447 112.855 40.0293C112.413 40.1139 112.019 40.1562 111.674 40.1562C110.912 40.1562 110.32 39.9512 109.896 39.541C109.48 39.1243 109.271 38.5384 109.271 37.7832ZM114.594 34.8047C114.594 34.069 114.721 33.3724 114.975 32.7148C115.235 32.0508 115.603 31.4714 116.078 30.9766C116.553 30.4753 117.123 30.0814 117.787 29.7949C118.458 29.502 119.206 29.3555 120.033 29.3555C120.847 29.3555 121.583 29.5052 122.24 29.8047C122.898 30.0977 123.461 30.4883 123.93 30.9766C124.398 31.4583 124.753 32.0247 124.994 32.6758C125.242 33.3203 125.365 33.9941 125.365 34.6973C125.365 34.86 125.359 35.013 125.346 35.1562C125.333 35.293 125.32 35.4069 125.307 35.498H116.928C116.967 35.9668 117.077 36.39 117.26 36.7676C117.442 37.1387 117.676 37.4609 117.963 37.7344C118.249 38.0078 118.575 38.2194 118.939 38.3691C119.304 38.5124 119.688 38.584 120.092 38.584C120.385 38.584 120.674 38.5482 120.961 38.4766C121.247 38.3984 121.511 38.291 121.752 38.1543C121.993 38.0111 122.204 37.8418 122.387 37.6465C122.576 37.4447 122.722 37.2233 122.826 36.9824L124.711 37.5195C124.353 38.3073 123.757 38.9518 122.924 39.4531C122.09 39.9479 121.12 40.1953 120.014 40.1953C119.2 40.1953 118.458 40.0521 117.787 39.7656C117.123 39.4792 116.553 39.0918 116.078 38.6035C115.603 38.1087 115.235 37.5358 114.975 36.8848C114.721 36.2272 114.594 35.5339 114.594 34.8047ZM116.869 33.9844H123.188C123.148 33.5417 123.038 33.1348 122.855 32.7637C122.68 32.3861 122.452 32.0671 122.172 31.8066C121.892 31.5462 121.563 31.3444 121.186 31.2012C120.814 31.0514 120.424 30.9766 120.014 30.9766C119.604 30.9766 119.213 31.0514 118.842 31.2012C118.471 31.3444 118.145 31.5462 117.865 31.8066C117.585 32.0671 117.357 32.3861 117.182 32.7637C117.012 33.1348 116.908 33.5417 116.869 33.9844ZM126.527 34.7754C126.527 34.0267 126.645 33.3236 126.879 32.666C127.12 32.0085 127.452 31.4388 127.875 30.957C128.305 30.4688 128.816 30.0814 129.408 29.7949C130.007 29.502 130.665 29.3555 131.381 29.3555C132.221 29.3555 132.956 29.5573 133.588 29.9609C134.226 30.3581 134.75 30.8789 135.16 31.5234V29.541H137.104V39.6973C137.104 40.459 136.964 41.1328 136.684 41.7188C136.404 42.3047 136.013 42.7995 135.512 43.2031C135.01 43.6133 134.421 43.9258 133.744 44.1406C133.067 44.3555 132.335 44.4629 131.547 44.4629C130.388 44.4629 129.424 44.2643 128.656 43.8672C127.888 43.4766 127.243 42.9264 126.723 42.2168L127.963 41.0645C128.36 41.6243 128.874 42.0508 129.506 42.3438C130.144 42.6367 130.824 42.7832 131.547 42.7832C132.003 42.7832 132.432 42.7214 132.836 42.5977C133.24 42.4805 133.594 42.2949 133.9 42.041C134.206 41.7871 134.451 41.4648 134.633 41.0742C134.815 40.6901 134.906 40.2311 134.906 39.6973V38.0957C134.535 38.7337 134.021 39.2285 133.363 39.5801C132.712 39.9251 132.025 40.0977 131.303 40.0977C130.593 40.0977 129.945 39.9544 129.359 39.668C128.773 39.3815 128.269 38.9941 127.846 38.5059C127.429 38.0111 127.104 37.4447 126.869 36.8066C126.641 36.1621 126.527 35.485 126.527 34.7754ZM128.764 34.8438C128.764 35.3255 128.845 35.7747 129.008 36.1914C129.177 36.6081 129.408 36.9759 129.701 37.2949C129.994 37.6074 130.336 37.8581 130.727 38.0469C131.124 38.2292 131.557 38.3203 132.025 38.3203C132.357 38.3203 132.676 38.265 132.982 38.1543C133.288 38.0371 133.572 37.8841 133.832 37.6953C134.092 37.5 134.314 37.2786 134.496 37.0312C134.685 36.7839 134.822 36.5202 134.906 36.2402V33.4961C134.776 33.1641 134.604 32.8613 134.389 32.5879C134.174 32.3145 133.93 32.0801 133.656 31.8848C133.383 31.6829 133.093 31.5267 132.787 31.416C132.481 31.2988 132.172 31.2402 131.859 31.2402C131.378 31.2402 130.948 31.3444 130.57 31.5527C130.193 31.7546 129.87 32.028 129.604 32.373C129.337 32.7116 129.128 33.0957 128.979 33.5254C128.835 33.9486 128.764 34.388 128.764 34.8438ZM138.979 36.9238C138.979 36.429 139.086 35.9831 139.301 35.5859C139.516 35.1823 139.818 34.834 140.209 34.541C140.606 34.248 141.075 34.0234 141.615 33.8672C142.156 33.7044 142.751 33.623 143.402 33.623C143.897 33.623 144.382 33.6654 144.857 33.75C145.339 33.8346 145.775 33.9518 146.166 34.1016V33.3789C146.166 32.6042 145.945 32.002 145.502 31.5723C145.059 31.1361 144.424 30.918 143.598 30.918C143.038 30.918 142.488 31.0221 141.947 31.2305C141.413 31.4388 140.857 31.735 140.277 32.1191L139.604 30.7227C140.951 29.8177 142.351 29.362 143.803 29.3555C145.242 29.3555 146.361 29.7233 147.162 30.459C147.963 31.1947 148.363 32.2493 148.363 33.623V37.4023C148.363 37.8711 148.555 38.1087 148.939 38.1152V40C148.725 40.0391 148.539 40.0651 148.383 40.0781C148.233 40.0911 148.087 40.0977 147.943 40.0977C147.514 40.0977 147.182 39.9935 146.947 39.7852C146.719 39.5703 146.576 39.2969 146.518 38.9648L146.459 38.3008C145.99 38.9128 145.414 39.3815 144.73 39.707C144.047 40.0326 143.311 40.1953 142.523 40.1953C142.016 40.1953 141.544 40.1139 141.107 39.9512C140.678 39.7819 140.307 39.5508 139.994 39.2578C139.682 38.9648 139.434 38.6198 139.252 38.2227C139.07 37.819 138.979 37.3861 138.979 36.9238ZM141.059 36.7383C141.059 37.2591 141.251 37.6986 141.635 38.0566C142.025 38.4082 142.52 38.584 143.119 38.584C143.653 38.584 144.158 38.4863 144.633 38.291C145.108 38.0957 145.479 37.8255 145.746 37.4805C146.026 37.2396 146.166 36.9857 146.166 36.7188V35.3418C145.795 35.1921 145.398 35.0781 144.975 35C144.551 34.9219 144.141 34.8828 143.744 34.8828C142.956 34.8828 142.312 35.0521 141.811 35.3906C141.309 35.7292 141.059 36.1784 141.059 36.7383Z" fill="black"/>
<path d="M150.414 32.8027C150.414 31.9499 150.567 31.1003 150.873 30.2539C151.179 29.4076 151.628 28.6491 152.221 27.9785C152.813 27.3014 153.536 26.7578 154.389 26.3477C155.242 25.931 156.208 25.7227 157.289 25.7227C158.585 25.7227 159.691 26.0091 160.609 26.582C161.527 27.1549 162.221 27.9004 162.689 28.8184L160.932 30C160.73 29.5703 160.489 29.209 160.209 28.916C159.929 28.623 159.623 28.3919 159.291 28.2227C158.959 28.0469 158.611 27.9232 158.246 27.8516C157.888 27.7799 157.543 27.7441 157.211 27.7441C156.462 27.7441 155.808 27.8939 155.248 28.1934C154.688 28.4928 154.219 28.89 153.842 29.3848C153.464 29.873 153.178 30.4264 152.982 31.0449C152.787 31.6569 152.689 32.2689 152.689 32.8809C152.689 33.571 152.803 34.2318 153.031 34.8633C153.259 35.4883 153.575 36.0417 153.979 36.5234C154.389 36.9987 154.874 37.3796 155.434 37.666C155.993 37.9525 156.605 38.0957 157.27 38.0957C157.615 38.0957 157.969 38.0534 158.334 37.9688C158.705 37.8841 159.06 37.7441 159.398 37.5488C159.737 37.3535 160.049 37.1094 160.336 36.8164C160.629 36.5234 160.867 36.1719 161.049 35.7617L162.914 36.8164C162.686 37.3503 162.364 37.8223 161.947 38.2324C161.537 38.6361 161.072 38.9779 160.551 39.2578C160.03 39.5378 159.48 39.7526 158.9 39.9023C158.321 40.0456 157.751 40.1172 157.191 40.1172C156.189 40.1172 155.274 39.9056 154.447 39.4824C153.62 39.0527 152.908 38.4961 152.309 37.8125C151.71 37.1224 151.244 36.3411 150.912 35.4688C150.58 34.5964 150.414 33.7077 150.414 32.8027ZM163.939 36.9238C163.939 36.429 164.047 35.9831 164.262 35.5859C164.477 35.1823 164.779 34.834 165.17 34.541C165.567 34.248 166.036 34.0234 166.576 33.8672C167.117 33.7044 167.712 33.623 168.363 33.623C168.858 33.623 169.343 33.6654 169.818 33.75C170.3 33.8346 170.736 33.9518 171.127 34.1016V33.3789C171.127 32.6042 170.906 32.002 170.463 31.5723C170.02 31.1361 169.385 30.918 168.559 30.918C167.999 30.918 167.449 31.0221 166.908 31.2305C166.374 31.4388 165.818 31.735 165.238 32.1191L164.564 30.7227C165.912 29.8177 167.312 29.362 168.764 29.3555C170.202 29.3555 171.322 29.7233 172.123 30.459C172.924 31.1947 173.324 32.2493 173.324 33.623V37.4023C173.324 37.8711 173.516 38.1087 173.9 38.1152V40C173.686 40.0391 173.5 40.0651 173.344 40.0781C173.194 40.0911 173.048 40.0977 172.904 40.0977C172.475 40.0977 172.143 39.9935 171.908 39.7852C171.68 39.5703 171.537 39.2969 171.479 38.9648L171.42 38.3008C170.951 38.9128 170.375 39.3815 169.691 39.707C169.008 40.0326 168.272 40.1953 167.484 40.1953C166.977 40.1953 166.505 40.1139 166.068 39.9512C165.639 39.7819 165.268 39.5508 164.955 39.2578C164.643 38.9648 164.395 38.6198 164.213 38.2227C164.031 37.819 163.939 37.3861 163.939 36.9238ZM166.02 36.7383C166.02 37.2591 166.212 37.6986 166.596 38.0566C166.986 38.4082 167.481 38.584 168.08 38.584C168.614 38.584 169.118 38.4863 169.594 38.291C170.069 38.0957 170.44 37.8255 170.707 37.4805C170.987 37.2396 171.127 36.9857 171.127 36.7188V35.3418C170.756 35.1921 170.359 35.0781 169.936 35C169.512 34.9219 169.102 34.8828 168.705 34.8828C167.917 34.8828 167.273 35.0521 166.771 35.3906C166.27 35.7292 166.02 36.1784 166.02 36.7383ZM175.99 40V29.541H178.031V31.8848C178.389 31.1621 178.858 30.5859 179.438 30.1562C180.023 29.7201 180.648 29.4824 181.312 29.4434C181.443 29.4434 181.55 29.4434 181.635 29.4434C181.726 29.4434 181.804 29.4499 181.869 29.4629V31.4355C181.016 31.4616 180.258 31.6602 179.594 32.0312C178.936 32.3958 178.467 32.9199 178.188 33.6035V40H175.99Z" fill="#F25244"/>
<path fill-rule="evenodd" clip-rule="evenodd" d="M29.3604 31.9943C29.3604 36.1738 32.6979 39.5619 36.8149 39.5619C40.9319 39.5619 44.2694 36.1738 44.2694 31.9943C44.2694 27.8149 40.9319 24.4268 36.8149 24.4268C32.6979 24.4268 29.3604 27.8149 29.3604 31.9943ZM31.1522 29.6147C32.1005 27.2891 34.3356 25.7727 36.8149 25.7727C40.1964 25.7757 42.9377 28.5562 42.9436 31.9889C42.9458 34.5058 41.4539 36.7761 39.1639 37.7408C36.874 38.7055 34.237 38.1745 32.4831 36.3956C30.7292 34.6166 30.2039 31.9402 31.1522 29.6147Z" fill="black"/>
<path fill-rule="evenodd" clip-rule="evenodd" d="M33.7639 31.9889C33.7639 33.6995 35.1299 35.0862 36.815 35.0862C38.4988 35.0832 39.8631 33.6983 39.866 31.9889C39.866 30.2783 38.5 28.8916 36.815 28.8916C35.1299 28.8916 33.7639 30.2783 33.7639 31.9889ZM35.0951 31.9673C35.0951 31.003 35.8651 30.2213 36.815 30.2213V30.27C37.7464 30.2696 38.5089 31.0221 38.5348 31.9673C38.5348 32.9315 37.7648 33.7132 36.815 33.7132C35.8651 33.7132 35.0951 32.9315 35.0951 31.9673Z" fill="black"/>
<rect x="36.1494" y="34.4106" width="1.33117" height="4.35135" fill="black"/>
<rect x="39.2004" y="31.3135" width="4.27039" height="1.35135" fill="black"/>
<rect width="1.34135" height="4.30809" transform="matrix(0.700025 -0.714118 0.703506 0.710689 38.0271 34.1885)" fill="black"/>
<rect width="4.3081" height="1.34134" transform="matrix(0.703381 -0.710813 0.700149 0.713997 38.0251 29.7949)" fill="black"/>
<rect x="36.1494" y="25.2158" width="1.33117" height="4.35135" fill="black"/>
<rect x="30.1431" y="31.3135" width="4.28636" height="1.35135" fill="black"/>
<rect width="1.34135" height="4.32419" transform="matrix(0.700024 -0.714119 0.703505 0.71069 31.6184 27.6938)" fill="black"/>
<rect width="4.31883" height="1.34134" transform="matrix(0.703382 -0.710812 0.700149 0.713997 31.6218 36.3008)" fill="black"/>
<path fill-rule="evenodd" clip-rule="evenodd" d="M0 30.0162C0 35.4584 4.34592 39.8702 9.70688 39.8702C15.0654 39.8643 19.4079 35.4559 19.4138 30.0162C19.4138 24.5739 15.0678 20.1621 9.70688 20.1621C4.34592 20.1621 0 24.5739 0 30.0162ZM1.3525 30.0017C1.34857 25.3115 5.08667 21.5038 9.70688 21.4918V21.5135C11.9311 21.5106 14.0653 22.4048 15.6401 23.9994C17.2148 25.5939 18.1011 27.7582 18.1039 30.0162C18.0921 34.7064 14.3413 38.5012 9.7211 38.4972C5.10087 38.4932 1.35642 34.692 1.3525 30.0017Z" fill="black"/>
<path fill-rule="evenodd" clip-rule="evenodd" d="M6.14102 31.5109C6.73907 32.9738 8.14674 33.9265 9.70693 33.9243C11.8319 33.9213 13.5537 32.1733 13.5567 30.0162C13.5588 28.4323 12.6204 27.0033 11.1793 26.3962C9.73832 25.7891 8.0789 26.1236 6.97567 27.2435C5.87244 28.3635 5.54296 30.0481 6.14102 31.5109ZM7.19907 30.0054C7.19613 28.5945 8.31722 27.4468 9.70693 27.4378V27.454C10.3791 27.4497 11.0252 27.7177 11.5019 28.1987C11.9787 28.6797 12.2468 29.3338 12.2468 30.0162C12.238 31.427 11.1074 32.5651 9.71762 32.5621C8.32788 32.5591 7.20201 31.4162 7.19907 30.0054Z" fill="black"/>
<rect x="9.04126" y="33.2485" width="1.33117" height="5.76216" fill="black"/>
<rect x="0.830566" y="29.3403" width="5.70273" height="1.35135" fill="black"/>
<rect width="1.34134" height="5.72986" transform="matrix(0.700399 -0.713752 0.703134 0.711058 11.488 32.7764)" fill="black"/>
<rect width="5.72986" height="1.34134" transform="matrix(0.703133 -0.711058 0.700398 0.713753 2.95752 35.8931)" fill="black"/>
<rect x="9.04126" y="21.0054" width="1.33117" height="5.77838" fill="black"/>
<rect x="12.8911" y="29.3403" width="5.69208" height="1.35135" fill="black"/>
<rect width="1.34134" height="5.74059" transform="matrix(0.700398 -0.713753 0.703133 0.711058 2.9585 24.1147)" fill="black"/>
<rect width="5.74059" height="1.34134" transform="matrix(0.703133 -0.711058 0.700398 0.713753 11.4841 27.2378)" fill="black"/>
<path fill-rule="evenodd" clip-rule="evenodd" d="M27.1238 30.9351H22.1452C21.9447 30.9364 21.7523 30.8544 21.6128 30.7081C21.4355 30.5014 21.3507 30.2293 21.3785 29.9567C21.3812 29.928 21.3812 29.899 21.3785 29.8702C21.0789 27.1277 20.0046 24.5315 18.2848 22.3946C16.0218 19.6919 13.0081 18.8594 10.0955 18.027L9.17432 17.7621L9.54172 16.4648L10.4576 16.7243C13.4181 17.5675 16.7726 18.5243 19.2965 21.5135C21.1589 23.8216 22.3337 26.6213 22.683 29.5838H26.6925L26.7617 29.2594C27.028 28.0162 27.5178 25.6973 29.2164 24.0702C31.3782 21.9675 34.0672 20.9405 37.4483 20.9405V22.2919C34.3867 22.2919 32.0651 23.1675 30.1376 25.0486C28.7318 26.3946 28.3006 28.4432 28.0663 29.5405C27.9012 30.3189 27.7681 30.9351 27.1238 30.9351Z" fill="black"/>
<path fill-rule="evenodd" clip-rule="evenodd" d="M30.8246 23.8108H29.4934V15.6973L36.2558 15.7351V21.2324H34.9246V17.081L30.8246 17.054V23.8108Z" fill="black"/>
<path fill-rule="evenodd" clip-rule="evenodd" d="M29.6585 25.2054L20.1965 25.1891V18.2756H10.9263V16.9297H21.5277V23.8378L29.6638 23.854L29.6585 25.2054Z" fill="black"/>
<path fill-rule="evenodd" clip-rule="evenodd" d="M10.4735 17.7513L9.14771 17.6053C9.62693 13.0702 12.1402 9.45399 15.8728 7.93507L16.4478 7.70264L16.7194 8.24318C17.4329 9.73507 18.2742 11.1513 19.0835 12.5243C19.8929 13.8972 20.7874 15.4107 21.5329 16.9783L20.3348 17.5675C19.6107 16.054 18.7641 14.6161 17.9387 13.2432C17.2199 12.0216 16.4798 10.7675 15.8089 9.45939C12.8484 10.8918 10.8729 13.9567 10.4735 17.7513Z" fill="black"/>
<rect width="1.34637" height="9.57795" transform="matrix(0.492711 -0.870193 0.863713 0.503984 11.5203 13.0571)" fill="black"/>
<rect width="33.0858" height="1.35058" transform="matrix(0.979864 -0.199667 0.193974 0.981007 35.0522 22.8745)" fill="black"/>
<path fill-rule="evenodd" clip-rule="evenodd" d="M49.1735 13.4107L48.1831 12.508C50.5739 9.80534 54.6686 10.5189 58.3 11.1405C59.7043 11.4255 61.1287 11.5972 62.5597 11.654C64.0293 11.654 65.7545 9.38372 67.3945 7.18913C69.3274 4.62696 71.3241 1.97831 73.6617 1.78372C75.3602 1.67021 76.6275 3.09183 77.6445 4.48642C77.7137 4.57291 78.0386 4.89183 78.3261 5.17291C79.4961 6.23293 80.5478 7.42024 81.4623 8.71345C82.0985 9.89171 81.7855 11.3655 80.7275 12.1729C80.0673 12.7134 79.4176 12.3513 78.7893 12.0162C78.5657 11.8918 78.3048 11.7513 77.98 11.6053C77.6552 11.4594 77.4954 11.3621 77.2931 11.254C76.3879 10.7837 76.0152 10.5891 74.4976 10.9837C73.8784 11.133 73.226 10.9745 72.7405 10.5567C71.6756 9.70264 71.01 7.85399 71.01 6.57291H72.3411C72.3411 7.50264 72.8417 8.92426 73.5552 9.49183C73.7183 9.65328 73.9497 9.72213 74.1728 9.67561C76.0791 9.17831 76.7979 9.48102 77.9001 10.054C78.0918 10.1567 78.2995 10.2648 78.5391 10.3729C78.8852 10.5351 79.1727 10.6918 79.4123 10.8216C79.6519 10.9513 79.8223 11.0378 79.9448 11.081C80.2589 10.7945 80.7222 10.0702 80.3335 9.42156C79.4743 8.22917 78.4945 7.13131 77.4102 6.14588C77.114 5.87933 76.8365 5.59215 76.5796 5.28642C75.4401 3.71886 74.6095 3.07021 73.7628 3.12426C72.0217 3.2594 70.2113 5.6648 68.4382 7.98913C66.5 10.5567 64.6736 12.9837 62.5437 12.9837C61.0374 12.9269 59.538 12.7461 58.0604 12.4432C54.6206 11.8918 51.0744 11.2702 49.1735 13.4107Z" fill="black"/>
<path fill-rule="evenodd" clip-rule="evenodd" d="M67.6499 36.8758L66.5051 36.1785C68.635 32.6001 71.7499 26.0163 68.9811 22.1245C68.3102 21.1623 69.1941 19.0217 71.3772 14.3623C72.0539 13.0178 72.6461 11.6313 73.1503 10.2109L74.4336 10.5731C73.9125 12.0701 73.2917 13.5293 72.5753 14.9407C71.5849 17.0596 69.9129 20.5947 70.0886 21.3731C73.2568 25.8866 69.9236 33.0218 67.6499 36.8758Z" fill="black"/>
<path d="M46.8572 30.4379L46.6921 29.0974C52.1766 28.4001 52.5493 25.0974 52.741 23.5136C52.8049 22.973 52.8475 22.5784 53.2149 22.3622C53.4196 22.2466 53.6658 22.2346 53.8805 22.3298C57.6077 23.9244 60.712 22.8703 62.762 22.1892C64.1464 21.7244 65.2433 21.3568 65.8876 22.1892C68.0601 24.9622 70.6798 28.4811 70.8449 29.5244L69.5297 29.746C69.4072 29.1676 67.4424 26.346 64.8493 23.0325C64.278 23.1192 63.7187 23.2734 63.1827 23.492C61.1912 24.1568 57.9379 25.2541 54.0402 23.8595C53.8485 25.5784 53.1723 29.6379 46.8572 30.4379Z" fill="black"/>
<path fill-rule="evenodd" clip-rule="evenodd" d="M47.1872 39.2376H45.8561V30.9295C45.8946 29.788 46.1438 28.664 46.5909 27.6159C46.7582 27.1997 46.8953 26.7715 47.0009 26.3349C47.2192 25.2538 46.8252 23.9132 46.4098 22.497C45.5419 19.5457 44.461 15.87 48.3374 12.3511L49.2266 13.3565C45.9785 16.3078 46.8465 19.2592 47.6824 22.1132C48.151 23.697 48.5876 25.1943 48.3054 26.6105C48.1919 27.1205 48.0406 27.621 47.8528 28.1078C47.4653 29.0087 47.245 29.9744 47.2032 30.9565L47.1872 39.2376Z" fill="black"/>
<rect x="50.8027" y="27.8379" width="1.33117" height="11.4432" fill="black"/>
<path fill-rule="evenodd" clip-rule="evenodd" d="M41.4313 23.6432C41.0639 18.6108 43.5612 12.8324 48.8859 12L49.0829 13.3351C44.5463 14.0541 42.4377 19.1135 42.7625 23.5459L41.4313 23.6432Z" fill="black"/>
<path fill-rule="evenodd" clip-rule="evenodd" d="M44.9669 25.1298H43.6358C43.6358 24.9352 43.6358 24.6812 43.6358 24.3785C43.5452 21.9514 43.3269 16.2704 47.6239 13.2163L48.3854 14.2974C44.6581 16.9298 44.8764 21.9082 44.9669 24.3028C44.9563 24.6433 44.9669 24.9244 44.9669 25.1298Z" fill="black"/>
<path fill-rule="evenodd" clip-rule="evenodd" d="M70.8183 3.11343C70.7757 2.9837 70.7278 2.85937 70.6798 2.72964C70.5323 2.38124 70.4181 2.01921 70.3391 1.64856C70.3391 1.64856 70.0462 0.36748 70.8076 0.0809936C71.5691 -0.205493 72.0802 0.708021 72.2772 1.12424C72.3031 1.18761 72.3333 1.24903 72.3678 1.30802L72.5541 1.56748C72.7606 1.8208 72.9392 2.09631 73.0866 2.3891L71.8779 2.92964C71.8527 2.87216 71.8243 2.81621 71.7927 2.76207L70.8183 3.11343Z" fill="black"/>
<path fill-rule="evenodd" clip-rule="evenodd" d="M77.9374 10.9027C77.9437 10.8797 77.9437 10.8554 77.9374 10.8324H76.6062C76.6062 10.3568 77.0322 9.55136 78.5124 7.24325C78.6562 7.02704 78.7627 6.85947 78.8159 6.76758L79.9501 7.47569L79.6306 7.98379C78.9972 8.91381 78.4313 9.88935 77.9374 10.9027Z" fill="black"/>
<path fill-rule="evenodd" clip-rule="evenodd" d="M73.5551 2.58905C73.5551 2.52419 73.5178 2.45932 73.4965 2.39446L72.7723 2.49176C72.7723 2.39986 72.7723 2.30797 72.7351 2.22149C72.6806 1.92179 72.6503 1.61808 72.6445 1.31338C72.6445 1.19986 72.6445 0.167432 73.3847 0.064729C74.1248 -0.0379737 74.3963 0.864729 74.4762 1.22149C74.4762 1.27554 74.4762 1.32959 74.5135 1.36743L74.5987 1.57284C74.7042 1.79834 74.788 2.03367 74.8489 2.27554L73.5551 2.58905Z" fill="black"/>
<path fill-rule="evenodd" clip-rule="evenodd" d="M64.2103 39.1675H62.8792C62.8792 37.7891 62.8792 29.6594 62.8792 25.2918V22.7026H64.2103V25.308C64.2156 29.6486 64.221 37.7837 64.2103 39.1675Z" fill="black"/>
<path fill-rule="evenodd" clip-rule="evenodd" d="M46.3087 36.4487L48.9657 39.1298H45.8987L46.3087 36.4487Z" fill="black"/>
<path fill-rule="evenodd" clip-rule="evenodd" d="M45.5898 39.3998H49.61L46.1223 35.8809L45.5898 39.3998ZM48.3427 38.8592H46.2128L46.511 37.016L48.3427 38.8592Z" fill="black"/>
<path fill-rule="evenodd" clip-rule="evenodd" d="M51.2448 36.4648L53.8699 39.1459H50.8188L51.2448 36.4648Z" fill="black"/>
<path fill-rule="evenodd" clip-rule="evenodd" d="M50.51 39.4159H54.5088L51.0425 35.897L50.51 39.4159ZM53.2469 38.8753H51.133L51.4418 37.0321L53.2469 38.8753Z" fill="black"/>
<path fill-rule="evenodd" clip-rule="evenodd" d="M63.3477 36.4321L66.0366 39.1456H62.927L63.3477 36.4321Z" fill="black"/>
<path fill-rule="evenodd" clip-rule="evenodd" d="M62.6128 39.4161H66.6808L63.1453 35.8701L62.6128 39.4161ZM65.3657 38.8755H63.2358L63.502 36.9999L65.3657 38.8755Z" fill="black"/>
<path fill-rule="evenodd" clip-rule="evenodd" d="M67.9056 34.1514L68.6298 37.7514L66.3242 35.9135L67.9056 34.1514Z" fill="black"/>
<path fill-rule="evenodd" clip-rule="evenodd" d="M65.9302 35.9457L69.0398 38.416L68.06 33.5781L65.9302 35.9457ZM68.2251 37.0862L66.7129 35.8808L67.7512 34.7241L68.2251 37.0862Z" fill="black"/>
<rect x="58.7898" y="11.9946" width="1.33117" height="11.9676" fill="black"/>
</svg>
